Coordinates
version=1
nRows=6
nColumns=46
inDegrees=yes

Units are S.I. units (second, meters, Newtons, ...)
Angles are in degrees.

endheader
time	pelvis_tilt	pelvis_list	pelvis_rotation	pelvis_tx	pelvis_ty	pelvis_tz	bb_angle	bb_tx	bb_ty	bb_tz	hip_flexion_r	hip_adduction_r	hip_rotation_r	knee_angle_r	knee_angle_r_beta	ankle_angle_r	subtalar_angle_r	mtp_angle_r	crank_angle_r	hip_flexion_l	hip_adduction_l	hip_rotation_l	knee_angle_l	knee_angle_l_beta	ankle_angle_l	subtalar_angle_l	mtp_angle_l	crank_angle_l	lumbar_extension	lumbar_bending	lumbar_rotation	arm_flex_r	arm_add_r	arm_rot_r	elbow_flex_r	pro_sup_r	wrist_flex_r	wrist_dev_r	arm_flex_l	arm_add_l	arm_rot_l	elbow_flex_l	pro_sup_l	wrist_flex_l	wrist_dev_l
      5.00000000	    -29.15828457	      8.35213674	      7.35013446	      0.32496756	      1.12605254	     -0.29966560	      0.00000000	      0.50000000	      0.00000000	      0.25000000	     33.42034098	    -16.36280184	     -4.20425584	     21.48469394	      0.37497865	    -15.84359974	     -2.92000015	      0.00000000	      0.00000000	     83.32039904	      4.02943848	     -1.88788886	    112.32890689	      1.96050927	    -11.92404824	     -0.49615241	      0.00000000	      0.00000000	    -56.52669770	     -7.73306000	     -2.13705050	     28.84672163	    -35.52988107	      1.83824690	     97.34479956	     50.68201033	      0.00000000	      0.00000000	     53.39762731	    -13.39340713	     30.56661087	     84.81851813	     51.39301780	      0.00000000	      0.00000000
      5.00500000	    -29.44326420	      8.26232660	      7.82717892	      0.32490160	      1.12723750	     -0.29778446	      0.00000000	      0.50000000	      0.00000000	      0.25000000	     32.70446468	    -16.52374524	     -4.70138907	     20.76890092	      0.36248570	    -16.92329311	     -1.73498381	      0.00000000	      0.00000000	     84.66026565	      4.07747710	     -1.78852685	    112.43046390	      1.96228177	    -11.86166435	     -0.37622515	      0.00000000	      0.00000000	    -56.51727282	     -7.88431519	     -2.40890094	     28.67319146	    -35.23747715	      1.69680231	     97.18485434	     50.64893516	      0.00000000	      0.00000000	     53.78024331	    -13.46207920	     30.72072418	     84.83552908	     51.40855766	      0.00000000	      0.00000000
      5.01000000	    -29.68034801	      8.18329046	      8.38632449	      0.32483444	      1.12883185	     -0.29616127	      0.00000000	      0.50000000	      0.00000000	      0.25000000	     32.02587610	    -16.71385835	     -5.12150883	     20.25732263	      0.35355698	    -17.96419350	     -0.75325549	      0.00000000	      0.00000000	     85.82191142	      4.21437791	     -1.77037295	    112.30200081	      1.96003967	    -11.79569804	     -0.37164822	      0.00000000	      0.00000000	    -56.60249135	     -7.88555066	     -2.67218819	     28.62861523	    -34.94940495	      1.51566229	     96.99414841	     50.60440502	      0.00000000	      0.00000000	     54.27096608	    -13.44764228	     30.90287407	     84.88558248	     51.43022879	      0.00000000	      0.00000000
      5.01500000	    -29.61949467	      8.16185122	      9.22774019	      0.32482625	      1.13129983	     -0.29501093	      0.00000000	      0.50000000	      0.00000000	      0.25000000	     31.03369140	    -17.11958461	     -5.99384390	     19.95267225	      0.34823983	    -18.86867089	      0.16689181	      0.00000000	      0.00000000	     86.51997997	      4.73874942	     -1.83420644	    111.89748964	      1.95297962	    -11.92366420	     -0.76033210	      0.00000000	      0.00000000	    -57.04833124	     -7.66524565	     -3.16422387	     28.76450786	    -34.05675924	      0.66299411	     96.37891287	     50.43516719	      0.00000000	      0.00000000	     55.06040611	    -13.71127089	     31.79924179	     84.67153385	     51.48248249	      0.00000000	      0.00000000
      5.02000000	    -29.80381981	      8.18245820	      9.81559341	      0.32449866	      1.13352346	     -0.29372188	      0.00000000	      0.50000000	      0.00000000	      0.25000000	     30.59950790	    -17.36950818	     -6.12162020	     20.01764465	      0.34937381	    -19.83551486	      0.34416504	      0.00000000	      0.00000000	     87.37218751	      5.20632396	     -1.86741786	    111.37620338	      1.94388146	    -11.91816325	     -1.05883822	      0.00000000	      0.00000000	    -57.26630523	     -7.66293002	     -3.53227644	     28.83975373	    -33.56973653	      0.21311367	     96.04236430	     50.35213778	      0.00000000	      0.00000000	     55.75679688	    -13.71450613	     32.36912367	     84.64695840	     51.52965711	      0.00000000	      0.00000000
      5.02500000	    -30.10313488	      8.09555824	     10.37955182	      0.32408198	      1.13575729	     -0.29266307	      0.00000000	      0.50000000	      0.00000000	      0.25000000	     30.50132746	    -17.53360057	     -6.29047631	     20.41420517	      0.35629509	    -20.75230996	      0.32805945	      0.00000000	      0.00000000	     88.21649098	      5.53256396	     -1.95155220	    110.72261178	      1.93247413	    -11.68386826	     -1.26158002	      0.00000000	      0.00000000	    -57.39527063	     -7.57996002	     -3.77913142	     28.95100519	    -33.42970370	      0.06592965	     95.94362367	     50.32481536	      0.00000000	      0.00000000	     56.23290050	    -13.60613882	     32.40519846	     84.67464766	     51.53182727	      0.00000000	      0.00000000
